<mxfile host="app.diagrams.net" modified="2024-02-11T16:09:30.966Z" agent="Mozilla/5.0 (Macintosh; Intel Mac OS X 10_15_7) AppleWebKit/537.36 (KHTML, like Gecko) Chrome/120.0.0.0 Safari/537.36" version="23.1.2" etag="Fsc9U-Mtv2D8KIybqTyD" type="github">
  <diagram name="第 1 页" id="IFuxV79wefpRTz_yCOy3">
    <mxGraphModel>
      <root>
        <mxCell id="0" />
        <mxCell id="1" parent="0" />
      </root>
    </mxGraphModel>
  </diagram>
</mxfile>
